<svg xmlns="http://www.w3.org/2000/svg" width="96" height="96" viewBox="0 0 96 96">
<title>Dream eclipse</title>
<defs>
  <linearGradient id="rim" x1="0" y1="0" x2="1" y2="1"><stop stop-color="#F6A06A"/><stop offset=".5" stop-color="#FBC19A"/><stop offset="1" stop-color="#AA94FF"/></linearGradient>
</defs>
<rect x="2" y="2" width="92" height="92" rx="24" fill="#070B16"/>
<circle cx="49" cy="45" r="29" fill="#111A2B" stroke="#F6A06A" stroke-opacity=".18" stroke-width="9"/>
<circle cx="49" cy="45" r="28" fill="#070B16" stroke="url(#rim)" stroke-width="2.5"/>
<path d="M24 70Q48 55 78 59" fill="none" stroke="#AA94FF" stroke-opacity=".45"/>
<circle cx="45" cy="37" r="4" fill="#EBF0FA"/>
<path d="M43 41q-4 8-2 15l-9 12 4 2 12-14 4 3 12 1v-4l-11-3-5-12z" fill="#EBF0FA"/>
<path d="M44 42l-10 5-9-2m23-3 7 6 12-3" fill="none" stroke="#EBF0FA" stroke-width="3" stroke-linecap="round"/>
<path d="M41 36q-1-7 6-5 5 1 4 9l-5-2z" fill="#AA94FF"/>
<circle cx="20" cy="24" r="1.2" fill="#EBF0FA"/><circle cx="76" cy="25" r="1" fill="#F6A06A"/>
</svg>
